# xmcd
#
# Track frame offsets:
#	150
#	20857
#	37130
#	51267
#	72880
#	90157
#	115515
#	138225
#	163197
#	190195
#	211945
#	232182
#	253752
#	275877
#	297997
#
# Disc length: 4210 seconds
#
# Revision: 10
# Processed by: cddbd v1.5.2PL0 Copyright (c) Steve Scherf et al.
# Submitted via: Jack! The Knife 20 Magnifico
#
DISCID=e510700f
DTITLE=Pooh - The Best Of Pooh (Volume 1)
DYEAR=1997
DGENRE=Pop
TTITLE0=Brava la vita
TTITLE1=Noi due nel mondo e nell'anima
TTITLE2=Notte a sorpresa
TTITLE3=Giorni infiniti
TTITLE4=Pierre
TTITLE5=La mia donna
TTITLE6=Amici per sempre
TTITLE7=Stare senza di te
TTITLE8=Infiniti noi
TTITLE9=Chi fermerà la musica
TTITLE10=50 primavere
TTITLE11=Io e te per altri giorni
TTITLE12=Pronto, buongiorno è la sveglia
TTITLE13=Il cielo è blu sopra le nuvole
TTITLE14=Pensiero
EXTD=Emmanuele Ruffinengo
EXTT0=Facchinetti, D'Orazio
EXTT1=Facchinetti, Negrini
EXTT2=Facchinetti, Negrini
EXTT3=Facchinetti, Negrini
EXTT4=Facchinetti, Negrini
EXTT5=Facchinetti, Negrini
EXTT6=Facchinetti, Negrini
EXTT7=Canzian, D'Orazio
EXTT8=Facchinetti, Negrini
EXTT9=Facchinetti, Negrini
EXTT10=Battaglia, D'Orazio
EXTT11=Facchinetti, Negrini
EXTT12=Facchinetti, D'Orazio
EXTT13=Facchinetti, Negrini
EXTT14=Facchinetti, Negrini
PLAYORDER=
